<svg xmlns="http://www.w3.org/2000/svg" width="98" height="98">
    <path fill-rule="evenodd" d="M49 97.998C22.066 97.998.231 76.164.231 49.231.231 22.296 22.066.462 49 .462c26.934 0 48.769 21.834 48.769 48.769 0 26.933-21.835 48.767-48.769 48.767zm0-96.235c-26.174 0-47.468 21.294-47.468 47.468 0 26.174 21.294 47.467 47.468 47.467 26.174 0 47.468-21.293 47.468-47.467S75.174 1.763 49 1.763zm14.474 37.64c-1.323 0-2.399-1.076-2.399-2.399s1.076-2.399 2.399-2.399c1.324 0 2.399 1.076 2.399 2.399s-1.075 2.399-2.399 2.399zm0-3.261c-.476 0-.863.386-.863.862 0 .475.387.866.863.866s.862-.391.862-.866c0-.476-.386-.862-.862-.862zm7.029 17.776c-.146.132-.33.199-.514.199-.198 0-.397-.075-.548-.229l-1.398-1.417-7.223 7.662 3.996 3.997c.3.299.3.787 0 1.086l-2.692 2.692c-.15.149-.345.224-.543.224-.195 0-.394-.075-.543-.224l-.316-.319-2.148 2.152c-.149.149-.348.225-.543.225-.195 0-.393-.076-.544-.225l-.315-.318-2.152 2.146c-.149.151-.344.227-.539.227-.198 0-.394-.076-.544-.227l-.319-.314-2.147 2.149c-.15.149-.346.225-.544.225-.195 0-.39-.076-.54-.222l-1.413-1.399-1.395 1.396c-.149.149-.344.225-.543.225-.195 0-.391-.076-.54-.225l-2.691-2.692-2.692-2.688-2.692-2.662v-.003h-.004l-2.691-2.692c-.296-.3-.3-.779-.003-1.083l1.319-1.338-7.179-7.081-1.308 1.323c-.146.15-.345.224-.544.224-.184 0-.367-.063-.514-.194l-7.208-6.47c-.314-.281-.341-.769-.06-1.084.285-.315.772-.341 1.087-.061l2.407 2.16 13.671-13.412-9.338-8.832c-.307-.292-.319-.78-.03-1.087.293-.308.78-.318 1.087-.029L42.95 38.792c.15.139.236.338.24.544.004.205-.079.404-.222.551l-1.33 1.345 3.947 3.899 2.122-2.103c.165-.165.39-.248.622-.217l5.222.555 2.707-2.834-1.226-1.245c-.147-.147-.226-.345-.222-.551.004-.206.091-.401.24-.544l13.837-13.09c.308-.288.79-.278 1.083.03.293.308.278.795-.03 1.087L56.674 38.766l13.349 13.521 4.011-3.602-8.105-8.037c-.303-.3-.303-.784-.004-1.088.297-.3.784-.3 1.084-.003l8.168 8.1 1.507-1.353c.315-.281.802-.258 1.083.06.286.315.26.799-.055 1.088l-7.209 6.466zM47.036 71.772l.844-.84-1.616-1.596-.833.832 1.605 1.604zm-2.692-2.691l.825-.825-1.619-1.593-.81.814 1.604 1.604zm-2.695-2.688l.81-.81-1.612-1.585-.799.81 1.601 1.585zm-2.695-2.672l.794-.81-1.612-1.589-.787.794 1.605 1.605zm-7.247-10.894c.289-.296.585-.604.893-.918.25-.259.502-.522.746-.773-.311-.158-.604-.352-.878-.577l-1.518 1.522.757.746zm6.804-16.123L24.866 50.091l3.111 2.796 13.35-13.521-2.816-2.662zM33.56 49.472c.576.434 1.285.678 2.02.678 1.852 0 3.358-1.506 3.358-3.359 0-.737-.243-1.446-.678-2.023l-4.7 4.704zm5.791-5.792c.217.263.405.547.562.848l1.41-1.447-.694-.682-1.278 1.281zm3.066.48l-1.982 2.032c.025.199.041.397.041.599 0 2.7-2.197 4.893-4.896 4.893-.195 0-.39-.011-.585-.037-.397.405-.84.861-1.294 1.329-.307.319-.611.631-.899.926l18.122 17.874 1.611-1.608-1.739-1.736-1.762-1.765c-.3-.299-.3-.783 0-1.084.3-.299.787-.299 1.087 0l.941.942 3.419 3.418 1.604-1.609-2.557-2.555-.94-.945c-.304-.3-.304-.784 0-1.084.299-.3.783-.3 1.083 0l4.36 4.36 1.605-1.609-3.498-3.496c-.3-.3-.3-.788 0-1.088.3-.3.784-.3 1.083 0l.944.941v.004l3.101 3.097.315.318 1.604-1.608-14.192-14.192c-7.299 7.396-11.505 4.213-11.681 4.071-.173-.139-.278-.341-.289-.559-.014-.221.067-.435.225-.588l7.246-7.186-2.077-2.055zm14.763-2.369l-4.413 4.615c-.291.307-.779.319-1.086.026-.304-.293-.316-.78-.023-1.087l.555-.577-3.686-.394-9.39 9.315c1.421.33 4.578.176 9.286-4.835.142-.151.338-.237.547-.24.225-.004.409.079.555.224l10.207 10.208 7.135-7.568-9.687-9.687z"/>
</svg>
