<svg xmlns="http://www.w3.org/2000/svg" width="98" height="98">
    <path fill-rule="evenodd" d="M49 97.998C22.066 97.998.231 76.164.231 49.231.231 22.296 22.066.462 49 .462c26.934 0 48.769 21.834 48.769 48.769 0 26.933-21.835 48.767-48.769 48.767zm0-96.235c-26.174 0-47.468 21.294-47.468 47.468 0 26.174 21.294 47.467 47.468 47.467 26.174 0 47.468-21.293 47.468-47.467S75.174 1.763 49 1.763zm-24.038 23.13h6.278v-3.888H33v3.888h7.046v-3.888h1.76v3.888h7.349v-3.888h1.76v3.888h7.076v-3.888h1.764v3.888h6.341v-3.888h1.764v3.888h5.178v48.736H24.962V24.893zm1.599 47.136h44.877V38.331H26.561v33.698zm0-35.294h44.877V26.493H67.86v4.053h-1.764v-4.053h-6.341v4.053h-1.764v-4.053h-7.076v4.053h-1.764v-4.053h-7.345v4.053h-1.76v-4.053H33v4.053h-1.764v-4.053h-4.675v10.242zm22.855 27.004h-2.587v-1.507h2.587V48.073h-.035l-2.002 1.08-.301-1.185 2.515-1.347h1.329v15.611h2.587v1.507h-4.093z"/>
</svg>
