<svg xmlns="http://www.w3.org/2000/svg" width="98" height="98">
    <path fill-rule="evenodd" d="M49 97.998C22.066 97.998.231 76.164.231 49.231.231 22.296 22.066.462 49 .462c26.934 0 48.769 21.834 48.769 48.769 0 26.933-21.835 48.767-48.769 48.767zm0-96.235c-26.174 0-47.468 21.294-47.468 47.468 0 26.174 21.294 47.467 47.468 47.467 26.174 0 47.468-21.293 47.468-47.467S75.174 1.763 49 1.763zm13.925 72.03L31.182 62.78l.69-1.968c.216.022.432.053.643.077l-5.313-1.399.319-1.19h-3.547V24.668h33.633v8.11l10.75 2.857-1.091 4.109 6.76 2.358-11.101 31.691zm-6.642-47.801H25.348v30.933h30.935V25.992zm.494 32.308h-7.198l7.45 1.988c-.072-.665-.154-1.33-.252-1.988zm.83-24.137v1.369l7.696 2.054-6.534 24.576L44.245 58.3H28.906l-.067.237 29.916 7.966 7.96-29.921-9.108-2.419zm0 2.749v19.205c.251.983.37 2.044.499 3.109l5.524-20.713-6.023-1.601zm2.739 28.715l.519.181c-.02-.599-.051-1.201-.092-1.804l-.427 1.623zm1.281-4.81c.237 1.232.34 2.631.407 4.038l7.064-20.241-2.867-.998-4.604 17.201zm5.293-19.781l-.345 1.287 4.259 1.483-8.378 24.01-2.472-.86-.297 1.116-26.492-7.007-.308.891 29.23 10.199 10.2-29.235-5.397-1.884zM55.165 52.754H26.362v-25.44h28.803v25.44zm-2.147-1.374c-1.24-3.208-2.785-6.616-4.454-6.616-.113 0-.226.015-.34.041-2.121.546-3.609 5.046-4.052 6.575h8.846zm-10.756 0c-.669-2.543-2.379-8.155-5.648-11.426-.381-.38-.756-.576-1.123-.576-2.42 0-5.221 7.678-6.456 12.002h13.227zm11.529-22.743H27.737V51.38h.047c1.065-3.815 4.063-13.211 7.707-13.211.696 0 1.365.313 1.977.926 2.838 2.842 4.568 7.074 5.515 10.128l.284.895.319-.875c.829-2.266 2.25-5.072 4.34-5.607.211-.056.433-.082.638-.082 2.364 0 3.903 3.218 5.227 6.523v-21.44zm-7.45 9.861c-1.85 0-3.352-1.509-3.352-3.357 0-1.848 1.502-3.352 3.352-3.352 1.848 0 3.352 1.504 3.352 3.352 0 1.848-1.504 3.357-3.352 3.357zm0-5.804c-1.35 0-2.452 1.097-2.452 2.447 0 1.348 1.102 2.45 2.452 2.45 1.348 0 2.445-1.102 2.445-2.45 0-1.35-1.097-2.447-2.445-2.447z"/>
</svg>
