<svg xmlns="http://www.w3.org/2000/svg" width="98" height="98">
    <path fill-rule="evenodd" d="M49 97.998C22.066 97.998.231 76.164.231 49.231.231 22.296 22.066.462 49 .462c26.934 0 48.769 21.834 48.769 48.769 0 26.933-21.835 48.767-48.769 48.767zm0-96.235c-26.174 0-47.468 21.294-47.468 47.468 0 26.174 21.294 47.467 47.468 47.467 26.174 0 47.468-21.293 47.468-47.467S75.174 1.763 49 1.763zm-24.068 23.07h48.136v48.796H24.932V24.833zm1.736 11.856v35.377h44.977V26.307H26.668v10.382zm5.503 28.373l32.661-32.66H49.43V30.99l17.815-.004v17.819h-1.417V33.403L33.173 66.059l15.402.005-.004 1.412H30.755V49.66h1.416v15.402z"/>
</svg>
